/* XPM */
static char * icon_xpm[] = {
"48 48 655 2",
"  	c None",
". 	c #28465E",
"+ 	c #2B4A60",
"@ 	c #1C3C53",
"# 	c #0D2D44",
"$ 	c #0D2E45",
"% 	c #203E57",
"& 	c #2B4960",
"* 	c #0E2E46",
"= 	c #0F3046",
"- 	c #103047",
"; 	c #0C2D44",
"> 	c #28465D",
", 	c #1B3B51",
"' 	c #0D2D45",
") 	c #123249",
"! 	c #0F2F46",
"~ 	c #0E2E45",
"{ 	c #103148",
"] 	c #426074",
"^ 	c #476479",
"/ 	c #13344B",
"( 	c #193A51",
"_ 	c #516E83",
": 	c #2C4B60",
"< 	c #214158",
"[ 	c #365268",
"} 	c #13334B",
"| 	c #355469",
"1 	c #1D3D51",
"2 	c #334F66",
"3 	c #29475E",
"4 	c #13334A",
"5 	c #506C83",
"6 	c #2D4D62",
"7 	c #14344B",
"8 	c #436174",
"9 	c #244359",
"0 	c #2A495F",
"a 	c #2D4A60",
"b 	c #19394F",
"c 	c #1A384C",
"d 	c #18364E",
"e 	c #2B495F",
"f 	c #1C3D54",
"g 	c #234B64",
"h 	c #15334A",
"i 	c #315168",
"j 	c #FFFFFF",
"k 	c #CBD6DD",
"l 	c #9FB1BB",
"m 	c #788D9B",
"n 	c #6A8190",
"o 	c #8395A3",
"p 	c #8FA1AE",
"q 	c #D1DAE3",
"r 	c #2E4960",
"s 	c #1E3B51",
"t 	c #002A4E",
"u 	c #255D7A",
"v 	c #4F7E95",
"w 	c #668EA3",
"x 	c #5E94AC",
"y 	c #1B4A65",
"z 	c #1B3E55",
"A 	c #155977",
"B 	c #00324F",
"C 	c #FBFFFF",
"D 	c #AAB9C5",
"E 	c #627B8D",
"F 	c #335166",
"G 	c #0F2F47",
"H 	c #00213A",
"I 	c #0E2F46",
"J 	c #526979",
"K 	c #6A7E8C",
"L 	c #657C8C",
"M 	c #0C3853",
"N 	c #0C4864",
"O 	c #4D819A",
"P 	c #A3BDCB",
"Q 	c #D5E3EA",
"R 	c #F2F8FB",
"S 	c #B7D9E9",
"T 	c #1E6B94",
"U 	c #204862",
"V 	c #10668E",
"W 	c #0C648C",
"X 	c #437D96",
"Y 	c #B8CED8",
"Z 	c #A7B7C4",
"` 	c #4C6A7D",
" .	c #1B3D56",
"..	c #00253F",
"+.	c #042840",
"@.	c #1F3F55",
"#.	c #1C3B51",
"$.	c #0A2C43",
"%.	c #0E2E47",
"&.	c #2C485C",
"*.	c #466174",
"=.	c #002A49",
"-.	c #1B5C7A",
";.	c #A7C7D5",
">.	c #FEFFFF",
",.	c #BCD4E2",
"'.	c #4185AE",
").	c #4D89AD",
"!.	c #5C9EC0",
"~.	c #8BBCD5",
"{.	c #93B1C2",
"].	c #45687E",
"^.	c #062E48",
"/.	c #022843",
"(.	c #0C324C",
"_.	c #173A53",
":.	c #082B45",
"<.	c #7790A1",
"[.	c #D5E3EC",
"}.	c #445F73",
"|.	c #00223A",
"1.	c #0A2B43",
"2.	c #7B90A0",
"3.	c #002545",
"4.	c #296988",
"5.	c #CBE3ED",
"6.	c #F0FAFF",
"7.	c #F0FBFF",
"8.	c #EAF6FD",
"9.	c #C8DEEC",
"0.	c #B3CEE1",
"a.	c #96BBD4",
"b.	c #7DACCC",
"c.	c #A4C8E1",
"d.	c #9FB9CD",
"e.	c #5B778D",
"f.	c #09304D",
"g.	c #143B55",
"h.	c #446981",
"i.	c #456D84",
"j.	c #647F92",
"k.	c #90A3B1",
"l.	c #5B7788",
"m.	c #36566B",
"n.	c #6B8392",
"o.	c #1F3E55",
"p.	c #6E8596",
"q.	c #002842",
"r.	c #155D7F",
"s.	c #BCE2F4",
"t.	c #E3FCFF",
"u.	c #CDEDFE",
"v.	c #CFEEFE",
"w.	c #BFE1F0",
"x.	c #A7CCDF",
"y.	c #AFCCE0",
"z.	c #D3E3EF",
"A.	c #E5F1FB",
"B.	c #B6CEE0",
"C.	c #64849B",
"D.	c #19425F",
"E.	c #1A4461",
"F.	c #5B829B",
"G.	c #95B6CB",
"H.	c #B8E3F6",
"I.	c #63AECE",
"J.	c #23637F",
"K.	c #5C7889",
"L.	c #A3B2C0",
"M.	c #014D70",
"N.	c #7ABFDE",
"O.	c #B3E8FF",
"P.	c #98CFE9",
"Q.	c #9DD0E9",
"R.	c #A1CEE4",
"S.	c #A2C9DB",
"T.	c #C2E0EF",
"U.	c #E5F7FF",
"V.	c #EAF6FE",
"W.	c #A2B8C8",
"X.	c #224C6A",
"Y.	c #1C4765",
"Z.	c #305C7A",
"`.	c #86AAC3",
" +	c #A3C8E3",
".+	c #72A5C7",
"++	c #5393B8",
"@+	c #2B87B2",
"#+	c #005B84",
"$+	c #003351",
"%+	c #003C5A",
"&+	c #1A759C",
"*+	c #53ADCE",
"=+	c #57A1BE",
"-+	c #6FA9C4",
";+	c #8DBACF",
">+	c #ABCBDC",
",+	c #C7DEE9",
"'+	c #E7F6FD",
")+	c #C5D8E4",
"!+	c #4F7591",
"~+	c #093B5E",
"{+	c #557995",
"]+	c #BFD5E6",
"^+	c #729AB5",
"/+	c #3A6C8F",
"(+	c #9ABFDB",
"_+	c #75A4C5",
":+	c #5B92B7",
"<+	c #3A81AA",
"[+	c #11719D",
"}+	c #004F72",
"|+	c #005073",
"1+	c #0F7AA0",
"2+	c #368DAB",
"3+	c #6BA7C2",
"4+	c #91BDD3",
"5+	c #AECFDF",
"6+	c #D6E8F1",
"7+	c #EEF7FC",
"8+	c #9BB4C6",
"9+	c #1B4D71",
"0+	c #29587A",
"a+	c #A2BCCE",
"b+	c #DFF0FD",
"c+	c #DBF0FE",
"d+	c #99B9CF",
"e+	c #134A71",
"f+	c #8EB4CF",
"g+	c #93BAD7",
"h+	c #71A1C3",
"i+	c #5790B6",
"j+	c #2C7FA9",
"k+	c #036088",
"l+	c #00425B",
"m+	c #003B57",
"n+	c #046085",
"o+	c #2387AA",
"p+	c #589EBA",
"q+	c #87B6CE",
"r+	c #A8CADC",
"s+	c #DAEBF3",
"t+	c #D7E5EE",
"u+	c #5B85A1",
"v+	c #0A436C",
"w+	c #7193A9",
"x+	c #E6F0F7",
"y+	c #EAFAFF",
"z+	c #DDF1FC",
"A+	c #D8EDFA",
"B+	c #D0E6F5",
"C+	c #1F557B",
"D+	c #638EAD",
"E+	c #ADCDE5",
"F+	c #82ADCD",
"G+	c #689BBE",
"H+	c #4489B0",
"I+	c #106F9A",
"J+	c #004C6B",
"K+	c #004361",
"L+	c #086A90",
"M+	c #3590B0",
"N+	c #69A6C1",
"O+	c #9EC5D8",
"P+	c #D6E9F3",
"Q+	c #B2C9D9",
"R+	c #296086",
"S+	c #245B81",
"T+	c #B1C5D3",
"U+	c #E1F3FC",
"V+	c #E0F3FC",
"W+	c #E0F2FC",
"X+	c #E4F6FF",
"Y+	c #4E7E9D",
"Z+	c #35688C",
"`+	c #B1D0E6",
" @	c #92BAD6",
".@	c #72A2C4",
"+@	c #548FB6",
"@@	c #1F77A2",
"#@	c #005274",
"$@	c #004766",
"%@	c #0D6F92",
"&@	c #4396B4",
"*@	c #88BAD1",
"=@	c #C9DFEC",
"-@	c #81A6C0",
";@	c #0E4E7C",
">@	c #5583A2",
",@	c #E2ECF1",
"'@	c #FEFDFD",
")@	c #F9FCFE",
"!@	c #E3F4FC",
"~@	c #E2F4FD",
"{@	c #EBFBFF",
"]@	c #87ABC3",
"^@	c #0F4B75",
"/@	c #A4C4DC",
"(@	c #A0C4DE",
"_@	c #7AA8C8",
":@	c #5D94B9",
"<@	c #2B7BA6",
"[@	c #005779",
"}@	c #003E59",
"|@	c #004965",
"1@	c #11789C",
"2@	c #62AAC9",
"3@	c #A7CADE",
"4@	c #5889AB",
"5@	c #115483",
"6@	c #85A9C1",
"7@	c #FDFFFF",
"8@	c #FFFFFE",
"9@	c #FBFDFE",
"0@	c #E4F4FC",
"a@	c #E2F4FC",
"b@	c #ECFBFF",
"c@	c #B5D0E2",
"d@	c #084772",
"e@	c #82A8C4",
"f@	c #A9CAE2",
"g@	c #80ABCB",
"h@	c #6398BD",
"i@	c #2E7CA5",
"j@	c #005878",
"k@	c #00425E",
"l@	c #035377",
"m@	c #47A1C8",
"n@	c #90C0D9",
"o@	c #37729B",
"p@	c #256692",
"q@	c #A6C4D7",
"r@	c #EEF7FB",
"s@	c #F9FCFD",
"t@	c #FEFEFE",
"u@	c #E0F2FB",
"v@	c #E9F9FF",
"w@	c #C7DEED",
"x@	c #205A83",
"y@	c #5786A8",
"z@	c #AACBE3",
"A@	c #81ADCD",
"B@	c #6499BE",
"C@	c #1B789D",
"D@	c #005877",
"E@	c #00425F",
"F@	c #12699F",
"G@	c #5392B5",
"H@	c #79ACC7",
"I@	c #276A99",
"J@	c #3B76A0",
"K@	c #B0CCDD",
"L@	c #D1E5EF",
"M@	c #DBE9F1",
"N@	c #F4F8FA",
"O@	c #FAFDFE",
"P@	c #E3F4FE",
"Q@	c #C5DDEC",
"R@	c #42769A",
"S@	c #2E658E",
"T@	c #A5C6DF",
"U@	c #85ACCD",
"V@	c #4C93B7",
"W@	c #027295",
"X@	c #005776",
"Y@	c #00405D",
"Z@	c #7AAFD4",
"`@	c #77A4C1",
" #	c #20689B",
".#	c #4893BC",
"+#	c #95D5F0",
"@#	c #A8D0E3",
"##	c #B9D2E0",
"$#	c #D6E6EE",
"%#	c #EDF4F8",
"&#	c #FAFCFD",
"*#	c #F7FCFE",
"=#	c #E2F3FC",
"-#	c #D8ECF8",
";#	c #B4CFE1",
">#	c #6390B1",
",#	c #14517D",
"'#	c #92B7D3",
")#	c #69A5C7",
"!#	c #2489AC",
"~#	c #006E90",
"{#	c #005371",
"]#	c #003E58",
"^#	c #87B9DA",
"/#	c #81ADCE",
"(#	c #1B689F",
"_#	c #488FB6",
":#	c #65D5F6",
"<#	c #61D1FA",
"[#	c #82D1F3",
"}#	c #A6D4EB",
"|#	c #C7DFEB",
"1#	c #E4EEF2",
"2#	c #F4F7F8",
"3#	c #FCFCFC",
"4#	c #F5FAFD",
"5#	c #DFF1FB",
"6#	c #DDEFFB",
"7#	c #CDE3F1",
"8#	c #A2C0D4",
"9#	c #7BA3C0",
"0#	c #104E7B",
"a#	c #66A1C3",
"b#	c #469CBF",
"c#	c #1681A5",
"d#	c #006789",
"e#	c #004C69",
"f#	c #91B9D6",
"g#	c #1D71AA",
"h#	c #4A83AC",
"i#	c #508AA1",
"j#	c #24B1DE",
"k#	c #39C9F8",
"l#	c #74D1F7",
"m#	c #94DAF9",
"n#	c #A9DEF7",
"o#	c #C5E5F5",
"p#	c #DBEEF7",
"q#	c #ECF5FA",
"r#	c #F9FBFC",
"s#	c #E7F3FA",
"t#	c #D3EAF7",
"u#	c #D3E9F7",
"v#	c #CFE7F7",
"w#	c #AFCFE5",
"x#	c #7BABC8",
"y#	c #77A9CA",
"z#	c #13517E",
"A#	c #4A8DB1",
"B#	c #3896B8",
"C#	c #08779B",
"D#	c #005D7D",
"E#	c #004562",
"F#	c #BAD5E6",
"G#	c #2B7CB4",
"H#	c #4088BA",
"I#	c #CAD3D8",
"J#	c #0B4D6C",
"K#	c #0D86B6",
"L#	c #19C4F6",
"M#	c #39C4F2",
"N#	c #7CD3F6",
"O#	c #9ADCF9",
"P#	c #A7DFFA",
"Q#	c #B5E3FA",
"R#	c #C4E9FB",
"S#	c #CCEBFB",
"T#	c #ABD6F1",
"U#	c #9FCFEF",
"V#	c #9FCEEE",
"W#	c #9ECFF0",
"X#	c #79B2D5",
"Y#	c #5F9CBF",
"Z#	c #71ABCE",
"`#	c #1A5887",
" $	c #367BA3",
".$	c #218BAC",
"+$	c #00698B",
"@$	c #00506F",
"#$	c #003C57",
"$$	c #F2F5F7",
"%$	c #4D95C4",
"&$	c #277DB6",
"*$	c #BCD4E4",
"=$	c #004470",
"-$	c #02608D",
";$	c #16B1E2",
">$	c #09BEF4",
",$	c #1EB9EC",
"'$	c #66CBF3",
")$	c #9DDDF9",
"!$	c #AEE3FA",
"~$	c #B7E6FC",
"{$	c #AEDDF6",
"]$	c #8FC6E7",
"^$	c #92C8E9",
"/$	c #8FC5E6",
"($	c #91C8E8",
"_$	c #68A3C5",
":$	c #5897BA",
"<$	c #61A2C5",
"[$	c #1D5C8C",
"}$	c #29729B",
"|$	c #137E9D",
"1$	c #005A7A",
"2$	c #95BFDC",
"3$	c #247EBC",
"4$	c #79ADD2",
"5$	c #00507D",
"6$	c #0676A5",
"7$	c #0FBEF2",
"8$	c #00B4EC",
"9$	c #03AAE5",
"0$	c #2DB2E7",
"a$	c #62C5F0",
"b$	c #8BD5F6",
"c$	c #81BFDE",
"d$	c #7BB6D7",
"e$	c #7EBADB",
"f$	c #77B6D7",
"g$	c #6EB4D7",
"h$	c #3F87AF",
"i$	c #186B97",
"j$	c #25749D",
"k$	c #206293",
"l$	c #236D98",
"m$	c #116D8B",
"n$	c #004968",
"o$	c #559CCB",
"p$	c #378AC3",
"q$	c #EEF1F4",
"r$	c #005481",
"s$	c #0689BB",
"t$	c #03B4EB",
"u$	c #00ACE7",
"v$	c #00A0E0",
"w$	c #0097DC",
"x$	c #038FCF",
"y$	c #0D8DC6",
"z$	c #1991C8",
"A$	c #1891C7",
"B$	c #128AC1",
"C$	c #0582BB",
"D$	c #076396",
"E$	c #005989",
"F$	c #186B95",
"G$	c #226899",
"H$	c #236A96",
"I$	c #145B78",
"J$	c #BAD3E4",
"K$	c #3A8DC5",
"L$	c #60A2CE",
"M$	c #BDD1DD",
"N$	c #3987B0",
"O$	c #0886BA",
"P$	c #0098D2",
"Q$	c #0097D5",
"R$	c #008DCC",
"S$	c #0088C6",
"T$	c #0088C7",
"U$	c #0086C4",
"V$	c #0082BE",
"W$	c #007EB8",
"X$	c #0D6293",
"Y$	c #005F8E",
"Z$	c #1B6D97",
"`$	c #226B9B",
" %	c #216896",
".%	c #2F657D",
"+%	c #71AAD0",
"@%	c #4E97CA",
"#%	c #2C84C0",
"$%	c #9EC6E0",
"%%	c #C4D9E9",
"&%	c #B5D0E4",
"*%	c #97C0DB",
"=%	c #74A9CC",
"-%	c #6BA2C8",
";%	c #78A6C9",
">%	c #107CAE",
",%	c #007CB4",
"'%	c #0086C2",
")%	c #0089C5",
"!%	c #008AC7",
"~%	c #0088C5",
"{%	c #0083BD",
"]%	c #027AB2",
"^%	c #13608F",
"/%	c #005E8C",
"(%	c #216B9C",
"_%	c #256D9F",
":%	c #3A8BBF",
"<%	c #7BB2D6",
"[%	c #2E86C0",
"}%	c #1E7DBC",
"|%	c #2B84C0",
"1%	c #2F84BE",
"2%	c #3887BB",
"3%	c #5696C2",
"4%	c #95BBD4",
"5%	c #007FBB",
"6%	c #0085BF",
"7%	c #0085C0",
"8%	c #0589C3",
"9%	c #0384BE",
"0%	c #007DB6",
"a%	c #0872A6",
"b%	c #125E8C",
"c%	c #005A88",
"d%	c #2F799F",
"e%	c #226EA0",
"f%	c #2670A3",
"g%	c #A8CAE2",
"h%	c #6BA8D1",
"i%	c #67A4CF",
"j%	c #7FB1D4",
"k%	c #C2D6E5",
"l%	c #0F85BD",
"m%	c #2482B4",
"n%	c #2684B7",
"o%	c #007CB3",
"p%	c #136A9E",
"q%	c #185F8F",
"r%	c #216EA2",
"s%	c #2672A5",
"t%	c #357AAA",
"u%	c #2872A6",
"v%	c #1B6DA7",
"w%	c #4B8CB7",
"x%	c #1F6FA5",
"y%	c #2774A9",
"z%	c #2374AA",
"A%	c #3B84B5",
"B%	c #3280B4",
"C%	c #4088B5",
"D%	c #1D71A8",
"E%	c #2A78AC",
"F%	c #317FB3",
"G%	c #2475AD",
"H%	c #1B70AA",
"I%	c #2E7CB0",
"J%	c #2178B1",
"K%	c #2C7DB4",
"L%	c #2A7DB3",
"M%	c #1C74AE",
"N%	c #3381B7",
"O%	c #3987BC",
"P%	c #1C75B2",
"Q%	c #2C7DB7",
"R%	c #3182B8",
"S%	c #1B75B1",
"T%	c #1E76B3",
"U%	c #3C89BD",
"V%	c #2D82BB",
"W%	c #1F7AB7",
"X%	c #1473B3",
"Y%	c #3687BE",
"Z%	c #3487BF",
"`%	c #3F8BC0",
" &	c #6DA8CE",
".&	c #2D85C0",
"+&	c #8ABBDC",
"@&	c #94C0DF",
"#&	c #388CC4",
"$&	c #619EC5",
"%&	c #529BCC",
"&&	c #4493C7",
"*&	c #5C9CC7",
"=&	c #6C93AF",
"-&	c #6B96B5",
"                                                                                                ",
"                                      . +                                                       ",
"                                    @ # $ %                                                     ",
"                                  & * = - ; >                                                   ",
"                                  , ' ) ! ~ { ]                                                 ",
"                                ^ / ( _ : - $ <                                                 ",
"                                [ } | 1 2 3 ! 4 5                                               ",
"                                6 7 8       9 # 0                                               ",
"                                a b           c d                                               ",
"                                e f           g h i               j k l m n o p q               ",
"                                r s   t u v w x y z A B       C D E F G H I J K L               ",
"                                M N O P Q R j S T U V W X Y Z `  ...+.@.#.$.%.&.*.              ",
"                              =.-.;.>.j j j j ,.'.).!.~.{.].^./.(._.:.<.[.}.|.1.2.              ",
"                            3.4.5.j 6.7.8.9.0.a.b.c.d.e.f.g.h.i.j.k.l.m.j n.o.p.                ",
"                          q.r.s.t.u.v.w.x.y.z.A.B.C.D.E.F.G.H.I.J.    K.    L.                  ",
"                          M.N.O.P.Q.R.S.T.U.V.W.X.Y.Z.`. +.+++@+#+$+                            ",
"                        %+&+*+=+-+;+>+,+'+)+!+~+{+]+^+/+(+_+:+<+[+}+                            ",
"                        |+1+2+3+4+5+6+7+8+9+0+a+b+c+d+e+f+g+h+i+j+k+l+                          ",
"                      m+n+o+p+q+r+s+t+u+v+w+x+y+z+A+B+C+D+E+F+G+H+I+J+                          ",
"                      K+L+M+N+O+P+Q+R+S+T+j C U+V+W+X+Y+Z+`+ @.@+@@@#@                          ",
"                      $@%@&@*@=@-@;@>@,@j '@)@!@V+~@{@]@^@/@(@_@:@<@[@}@                        ",
"                      |@1@2@3@4@5@6@7@j >.8@9@0@W+a@b@c@d@e@f@g@h@i@j@k@                        ",
"                      l@m@n@o@p@q@r@s@t@j j 9@0@u@~@v@w@x@y@z@A@B@C@D@E@                        ",
"                    F@G@H@I@J@K@L@M@N@t@j j O@!@V+~@P@Q@R@S@T@U@V@W@X@Y@                        ",
"                    Z@`@ #.#+#@###$#%#&#t@j *#=#U+U+-#;#>#,#'#)#!#~#{#]#                        ",
"                  ^#/#(#_#:#<#[#}#|#1#2#3#j 4#u@5#6#7#8#9#0#a#b#c#d#e#                          ",
"                  f#g#h#i#j#k#l#m#n#o#p#q#r#s#t#u#v#w#x#y#z#A#B#C#D#E#                          ",
"                F#G#H#I#J#K#L#M#N#O#P#Q#R#S#T#U#V#W#X#Y#Z#`# $.$+$@$#$                          ",
"              $$%$&$*$  =$-$;$>$,$'$)$!$~${$]$^$/$($_$:$<$[$}$|$1$K+                            ",
"              2$3$4$      5$6$7$8$9$0$a$b$c$d$e$f$g$h$i$j$k$l$m$n$                              ",
"              o$p$q$        r$s$t$u$v$w$x$y$z$A$B$C$D$E$F$G$H$I$$+                              ",
"            J$K$L$j         M$N$O$P$Q$R$S$T$S$U$V$W$X$Y$Z$`$ %.%                                ",
"            +%@%#%$%%%&%*%=%-%;%>%,%V$'%)%!%~%'%{%]%^%/%Z$(%_%                                  ",
"            :%<%[%}%|%1%2%3%4%      5%6%7%'%8%9%0%a%b%c%d%e%f%                                  ",
"                g%h%i%j%k%                l%m%n%o%p%q%    r%s%                                  ",
"                                            t%u%  v%    w%x%y%                                  ",
"                                              z%A%B%    C%D%E%                                  ",
"                                              F%G%      A%H%I%                                  ",
"                                                J%K%    L%M%N%                                  ",
"                                                O%P%Q%R%S%T%U%                                  ",
"                                                  V%W%X%Y%Z%`%                                  ",
"                                                   &.&+&@&#&                                    ",
"                                                    $&%&&&*&                                    ",
"                                                      =&-&                                      ",
"                                                                                                ",
"                                                                                                ",
"                                                                                                ",
"                                                                                                "};
